<svg width="320" height="80" viewBox="0 0 320 80" fill="none" xmlns="http://www.w3.org/2000/svg" role="img" aria-label="职场参谋">
  <defs>
    <linearGradient id="zcsm-full-bg" x1="0" y1="0" x2="1" y2="1">
      <stop offset="0%" stop-color="#F6D27A"/>
      <stop offset="50%" stop-color="#D4A24A"/>
      <stop offset="100%" stop-color="#8C6318"/>
    </linearGradient>
    <linearGradient id="zcsm-full-face" x1="0" y1="0" x2="0" y2="1">
      <stop offset="0%" stop-color="#FFF6DE"/>
      <stop offset="100%" stop-color="#F1DEA8"/>
    </linearGradient>
    <linearGradient id="zcsm-full-n" x1="0.5" y1="0" x2="0.5" y2="1">
      <stop offset="0%" stop-color="#7A4A0A"/>
      <stop offset="100%" stop-color="#C8881E"/>
    </linearGradient>
    <linearGradient id="zcsm-full-s" x1="0.5" y1="0" x2="0.5" y2="1">
      <stop offset="0%" stop-color="#F6D27A"/>
      <stop offset="100%" stop-color="#A9761A"/>
    </linearGradient>
    <linearGradient id="zcsm-full-text" x1="0" y1="0" x2="1" y2="0">
      <stop offset="0%" stop-color="#8C6318"/>
      <stop offset="100%" stop-color="#C8881E"/>
    </linearGradient>
  </defs>
  <g transform="translate(8,8)">
    <rect width="64" height="64" rx="14" fill="url(#zcsm-full-bg)"/>
    <circle cx="32" cy="32" r="22" fill="url(#zcsm-full-face)" stroke="#8C6318" stroke-width="1.5"/>
    <g stroke="#8C6318" stroke-width="1.2" stroke-linecap="round">
      <line x1="32" y1="11" x2="32" y2="15"/>
      <line x1="32" y1="49" x2="32" y2="53"/>
      <line x1="11" y1="32" x2="15" y2="32"/>
      <line x1="49" y1="32" x2="53" y2="32"/>
    </g>
    <g stroke="#A9761A" stroke-width="0.8" stroke-linecap="round" opacity="0.7">
      <line x1="46.85" y1="17.15" x2="44.73" y2="19.27"/>
      <line x1="19.27" y1="44.73" x2="17.15" y2="46.85"/>
      <line x1="46.85" y1="46.85" x2="44.73" y2="44.73"/>
      <line x1="19.27" y1="19.27" x2="17.15" y2="17.15"/>
    </g>
    <text x="32" y="20.5" text-anchor="middle" font-family="'Inter','Helvetica',sans-serif" font-size="6" font-weight="700" fill="#7A4A0A">N</text>
    <polygon points="32,16 35,32 32,48 29,32" fill="url(#zcsm-full-s)"/>
    <polygon points="32,16 35,32 29,32" fill="url(#zcsm-full-n)"/>
    <circle cx="32" cy="32" r="2.2" fill="#FFF6DE" stroke="#7A4A0A" stroke-width="1"/>
  </g>
  <text x="92" y="54" font-family="'PingFang SC','HarmonyOS Sans SC','Source Han Sans SC','Microsoft YaHei',sans-serif" font-size="36" font-weight="600" fill="url(#zcsm-full-text)" letter-spacing="2">职场参谋</text>
</svg>
